<svg xmlns="http://www.w3.org/2000/svg" viewBox="0 0 500 333.37">
    <path d="M239.93,348.6A123.25,123.25,0,1,1,179.65,127a21.46,21.46,0,0,0,22.14-12.57l.42-1A21.26,21.26,0,0,0,185,83.82,166.75,166.75,0,1,0,330.4,280.64a21.26,21.26,0,0,0-23.22-25.18l-1.08.12a21.45,21.45,0,0,0-18.52,17.48A122.73,122.73,0,0,1,239.93,348.6Z" transform="translate(0 -82.8)" />
    <path d="M239.93,348.6A123.25,123.25,0,1,1,179.65,127a21.46,21.46,0,0,0,22.14-12.57l.42-1A21.26,21.26,0,0,0,185,83.82,166.75,166.75,0,1,0,330.4,280.64a21.26,21.26,0,0,0-23.22-25.18l-1.08.12a21.45,21.45,0,0,0-18.52,17.48A122.73,122.73,0,0,1,239.93,348.6Z" transform="translate(0 -82.8)" />
    <path d="M339.41,388.93l-.12,1.08a21.26,21.26,0,0,0,25.18,23.22A166.76,166.76,0,1,0,167.65,267.79,21.26,21.26,0,0,0,197.25,285l1-.42a21.46,21.46,0,0,0,12.57-22.14A123.27,123.27,0,1,1,356.89,370.4,21.46,21.46,0,0,0,339.41,388.93Z" transform="translate(0 -82.8)" />
    <path d="M339.41,388.93l-.12,1.08a21.26,21.26,0,0,0,25.18,23.22A166.76,166.76,0,1,0,167.65,267.79,21.26,21.26,0,0,0,197.25,285l1-.42a21.46,21.46,0,0,0,12.57-22.14A123.27,123.27,0,1,1,356.89,370.4,21.46,21.46,0,0,0,339.41,388.93Z" transform="translate(0 -82.8)" />
    <path class="cls-3" d="M239.93,348.6A123.25,123.25,0,1,1,179.65,127a21.46,21.46,0,0,0,22.14-12.57l.42-1A21.26,21.26,0,0,0,185,83.82,166.75,166.75,0,1,0,330.4,280.64a21.26,21.26,0,0,0-23.22-25.18l-1.08.12a21.45,21.45,0,0,0-18.52,17.48A122.73,122.73,0,0,1,239.93,348.6Z" transform="translate(0 -82.8)" />
    <path class="cls-3" d="M239.93,348.6A123.25,123.25,0,1,1,179.65,127a21.46,21.46,0,0,0,22.14-12.57l.42-1A21.26,21.26,0,0,0,185,83.82,166.75,166.75,0,1,0,330.4,280.64a21.26,21.26,0,0,0-23.22-25.18l-1.08.12a21.45,21.45,0,0,0-18.52,17.48A122.73,122.73,0,0,1,239.93,348.6Z" transform="translate(0 -82.8)" />
    <path class="cls-3" d="M239.93,348.6A123.25,123.25,0,1,1,179.65,127a21.46,21.46,0,0,0,22.14-12.57l.42-1A21.26,21.26,0,0,0,185,83.82,166.75,166.75,0,1,0,330.4,280.64a21.26,21.26,0,0,0-23.22-25.18l-1.08.12a21.45,21.45,0,0,0-18.52,17.48A122.73,122.73,0,0,1,239.93,348.6Z" transform="translate(0 -82.8)" />
    <path class="cls-3" d="M339.41,388.93l-.12,1.08a21.26,21.26,0,0,0,25.18,23.22A166.76,166.76,0,1,0,167.65,267.79,21.26,21.26,0,0,0,197.25,285l1-.42a21.46,21.46,0,0,0,12.57-22.14A123.27,123.27,0,1,1,356.89,370.4,21.46,21.46,0,0,0,339.41,388.93Z" transform="translate(0 -82.8)" />
    <path class="cls-3" d="M339.41,388.93l-.12,1.08a21.26,21.26,0,0,0,25.18,23.22A166.76,166.76,0,1,0,167.65,267.79,21.26,21.26,0,0,0,197.25,285l1-.42a21.46,21.46,0,0,0,12.57-22.14A123.27,123.27,0,1,1,356.89,370.4,21.46,21.46,0,0,0,339.41,388.93Z" transform="translate(0 -82.8)" />
    <path class="cls-3" d="M339.41,388.93l-.12,1.08a21.26,21.26,0,0,0,25.18,23.22A166.76,166.76,0,1,0,167.65,267.79,21.26,21.26,0,0,0,197.25,285l1-.42a21.46,21.46,0,0,0,12.57-22.14A123.27,123.27,0,1,1,356.89,370.4,21.46,21.46,0,0,0,339.41,388.93Z" transform="translate(0 -82.8)" />
</svg>